name rise30.2954peak35.7071fall66.7804.mot
datacolumns 19
datarows 33
range 1.62166800000000 1.67500000000000
endheader
time	ground_force1_vx	ground_force1_vy	ground_force1_vz	ground_force1_px	ground_force1_py	ground_force1_pz	ground_force2_vx	ground_force2_vy	ground_force2_vz	ground_force2_px	ground_force2_py	ground_force2_pz	ground_torque1_x	ground_torque1_y	ground_torque1_z	ground_torque2_x	ground_torque2_y	ground_torque2_z	
1.62166800000000	67.73676399999999	802.54933200000005	53.71671900000000	0.29777100000000	0.00000000000000	0.06354000000000	0.00000000000000	0.00000000000000	0.00000000000000	0.00000000000000	0.00000000000000	0.00000000000000	0.00000000000000	23.04852200000000	0.00000000000000	0.00000000000000	0.00000000000000	0.00000000000000	
1.62333500000000	66.68017500000001	802.39767099999995	53.72117000000000	0.29652700000000	0.00000000000000	0.06353300000000	0.00000000000000	0.00000000000000	0.00000000000000	0.00000000000000	0.00000000000000	0.00000000000000	0.00000000000000	23.01574700000000	0.00000000000000	0.00000000000000	0.00000000000000	0.00000000000000	
1.62499800000000	65.63087600000000	802.10297800000001	53.71716200000000	0.29531400000000	0.00000000000000	0.06352400000000	0.00000000000000	0.00000000000000	0.00000000000000	0.00000000000000	0.00000000000000	0.00000000000000	0.00000000000000	22.97914700000000	0.00000000000000	0.00000000000000	0.00000000000000	0.00000000000000	
1.62667000000000	64.59001000000001	801.66883900000005	53.70516600000000	0.29413000000000	0.00000000000000	0.06351300000000	0.00000000000000	0.00000000000000	0.00000000000000	0.00000000000000	0.00000000000000	0.00000000000000	0.00000000000000	22.93898700000000	0.00000000000000	0.00000000000000	0.00000000000000	0.00000000000000	
1.62834200000000	63.55860300000000	801.09901100000002	53.68560700000000	0.29297500000000	0.00000000000000	0.06350100000000	0.00000000000000	0.00000000000000	0.00000000000000	0.00000000000000	0.00000000000000	0.00000000000000	0.00000000000000	22.89550000000000	0.00000000000000	0.00000000000000	0.00000000000000	0.00000000000000	
1.62999600000000	62.53757200000000	800.39741800000002	53.65886500000000	0.29184900000000	0.00000000000000	0.06348600000000	0.00000000000000	0.00000000000000	0.00000000000000	0.00000000000000	0.00000000000000	0.00000000000000	0.00000000000000	22.84889700000000	0.00000000000000	0.00000000000000	0.00000000000000	0.00000000000000	
1.63166700000000	61.52772200000000	799.56814799999995	53.62527700000000	0.29075000000000	0.00000000000000	0.06347000000000	0.00000000000000	0.00000000000000	0.00000000000000	0.00000000000000	0.00000000000000	0.00000000000000	0.00000000000000	22.79936000000000	0.00000000000000	0.00000000000000	0.00000000000000	0.00000000000000	
1.63333000000000	60.52975200000000	798.61545400000000	53.58514100000000	0.28967800000000	0.00000000000000	0.06345200000000	0.00000000000000	0.00000000000000	0.00000000000000	0.00000000000000	0.00000000000000	0.00000000000000	0.00000000000000	22.74704500000000	0.00000000000000	0.00000000000000	0.00000000000000	0.00000000000000	
1.63499800000000	59.54425900000000	797.54374399999995	53.53871400000000	0.28863100000000	0.00000000000000	0.06343200000000	0.00000000000000	0.00000000000000	0.00000000000000	0.00000000000000	0.00000000000000	0.00000000000000	0.00000000000000	22.69208700000000	0.00000000000000	0.00000000000000	0.00000000000000	0.00000000000000	
1.63666300000000	58.57173900000000	796.35757999999998	53.48621500000000	0.28760900000000	0.00000000000000	0.06341000000000	0.00000000000000	0.00000000000000	0.00000000000000	0.00000000000000	0.00000000000000	0.00000000000000	0.00000000000000	22.63459900000000	0.00000000000000	0.00000000000000	0.00000000000000	0.00000000000000	
1.63833300000000	57.61259300000000	795.06167100000005	53.42782800000000	0.28661100000000	0.00000000000000	0.06338700000000	0.00000000000000	0.00000000000000	0.00000000000000	0.00000000000000	0.00000000000000	0.00000000000000	0.00000000000000	22.57467000000000	0.00000000000000	0.00000000000000	0.00000000000000	0.00000000000000	
1.63999800000000	56.66713300000000	793.66086399999995	53.36370400000000	0.28563400000000	0.00000000000000	0.06336100000000	0.00000000000000	0.00000000000000	0.00000000000000	0.00000000000000	0.00000000000000	0.00000000000000	0.00000000000000	22.51237400000000	0.00000000000000	0.00000000000000	0.00000000000000	0.00000000000000	
1.64166600000000	55.73558400000000	792.16013699999996	53.29396400000000	0.28467700000000	0.00000000000000	0.06333400000000	0.00000000000000	0.00000000000000	0.00000000000000	0.00000000000000	0.00000000000000	0.00000000000000	0.00000000000000	22.44776300000000	0.00000000000000	0.00000000000000	0.00000000000000	0.00000000000000	
1.64333300000000	54.81809000000000	790.56459199999995	53.21870000000000	0.28374000000000	0.00000000000000	0.06330500000000	0.00000000000000	0.00000000000000	0.00000000000000	0.00000000000000	0.00000000000000	0.00000000000000	0.00000000000000	22.38087800000000	0.00000000000000	0.00000000000000	0.00000000000000	0.00000000000000	
1.64499600000000	53.91472200000000	788.87944100000004	53.13797900000000	0.28282000000000	0.00000000000000	0.06327500000000	0.00000000000000	0.00000000000000	0.00000000000000	0.00000000000000	0.00000000000000	0.00000000000000	0.00000000000000	22.31174000000000	0.00000000000000	0.00000000000000	0.00000000000000	0.00000000000000	
1.64667000000000	53.02548000000000	787.11000000000001	53.05184400000000	0.28191500000000	0.00000000000000	0.06324200000000	0.00000000000000	0.00000000000000	0.00000000000000	0.00000000000000	0.00000000000000	0.00000000000000	0.00000000000000	22.24036200000000	0.00000000000000	0.00000000000000	0.00000000000000	0.00000000000000	
1.64833300000000	52.15030000000000	785.26167399999997	52.96032100000000	0.28102400000000	0.00000000000000	0.06320800000000	0.00000000000000	0.00000000000000	0.00000000000000	0.00000000000000	0.00000000000000	0.00000000000000	0.00000000000000	22.16674300000000	0.00000000000000	0.00000000000000	0.00000000000000	0.00000000000000	
1.65000000000000	51.28906100000000	783.33995000000004	52.86341600000000	0.28014600000000	0.00000000000000	0.06317200000000	0.00000000000000	0.00000000000000	0.00000000000000	0.00000000000000	0.00000000000000	0.00000000000000	0.00000000000000	22.09087400000000	0.00000000000000	0.00000000000000	0.00000000000000	0.00000000000000	
1.65166100000000	50.44158800000000	781.35037699999998	52.76112000000000	0.27927800000000	0.00000000000000	0.06313500000000	0.00000000000000	0.00000000000000	0.00000000000000	0.00000000000000	0.00000000000000	0.00000000000000	0.00000000000000	22.01273700000000	0.00000000000000	0.00000000000000	0.00000000000000	0.00000000000000	
1.65333300000000	49.60766400000000	779.29856099999995	52.65341500000000	0.27841900000000	0.00000000000000	0.06309600000000	0.00000000000000	0.00000000000000	0.00000000000000	0.00000000000000	0.00000000000000	0.00000000000000	0.00000000000000	21.93231000000000	0.00000000000000	0.00000000000000	0.00000000000000	0.00000000000000	
1.65499600000000	48.78702800000000	777.19014700000002	52.54027200000000	0.27756700000000	0.00000000000000	0.06305600000000	0.00000000000000	0.00000000000000	0.00000000000000	0.00000000000000	0.00000000000000	0.00000000000000	0.00000000000000	21.84956400000000	0.00000000000000	0.00000000000000	0.00000000000000	0.00000000000000	
1.65667000000000	47.97938500000000	775.03080699999998	52.42165300000000	0.27671900000000	0.00000000000000	0.06301400000000	0.00000000000000	0.00000000000000	0.00000000000000	0.00000000000000	0.00000000000000	0.00000000000000	0.00000000000000	21.76446800000000	0.00000000000000	0.00000000000000	0.00000000000000	0.00000000000000	
1.65832900000000	47.18441400000000	772.82622400000002	52.29752100000000	0.27587500000000	0.00000000000000	0.06297000000000	0.00000000000000	0.00000000000000	0.00000000000000	0.00000000000000	0.00000000000000	0.00000000000000	0.00000000000000	21.67699200000000	0.00000000000000	0.00000000000000	0.00000000000000	0.00000000000000	
1.66000400000000	46.40177000000000	770.58208100000002	52.16783300000000	0.27503300000000	0.00000000000000	0.06292500000000	0.00000000000000	0.00000000000000	0.00000000000000	0.00000000000000	0.00000000000000	0.00000000000000	0.00000000000000	21.58710200000000	0.00000000000000	0.00000000000000	0.00000000000000	0.00000000000000	
1.66166500000000	45.63109000000000	768.30404399999998	52.03254700000000	0.27419100000000	0.00000000000000	0.06287900000000	0.00000000000000	0.00000000000000	0.00000000000000	0.00000000000000	0.00000000000000	0.00000000000000	0.00000000000000	21.49476800000000	0.00000000000000	0.00000000000000	0.00000000000000	0.00000000000000	
1.66332800000000	44.87200100000000	765.99774700000000	51.89162700000000	0.27334600000000	0.00000000000000	0.06283200000000	0.00000000000000	0.00000000000000	0.00000000000000	0.00000000000000	0.00000000000000	0.00000000000000	0.00000000000000	21.39996200000000	0.00000000000000	0.00000000000000	0.00000000000000	0.00000000000000	
1.66500200000000	44.12412100000000	763.66878099999997	51.74503700000000	0.27249900000000	0.00000000000000	0.06278300000000	0.00000000000000	0.00000000000000	0.00000000000000	0.00000000000000	0.00000000000000	0.00000000000000	0.00000000000000	21.30266100000000	0.00000000000000	0.00000000000000	0.00000000000000	0.00000000000000	
1.66666000000000	43.38707000000000	761.32267800000000	51.59275100000000	0.27164600000000	0.00000000000000	0.06273300000000	0.00000000000000	0.00000000000000	0.00000000000000	0.00000000000000	0.00000000000000	0.00000000000000	0.00000000000000	21.20284600000000	0.00000000000000	0.00000000000000	0.00000000000000	0.00000000000000	
1.66835800000000	42.66046700000000	758.96489599999995	51.43475100000000	0.27078700000000	0.00000000000000	0.06268200000000	0.00000000000000	0.00000000000000	0.00000000000000	0.00000000000000	0.00000000000000	0.00000000000000	0.00000000000000	21.10050400000000	0.00000000000000	0.00000000000000	0.00000000000000	0.00000000000000	
1.66999900000000	41.94394100000000	756.60080500000004	51.27102800000000	0.26992100000000	0.00000000000000	0.06262900000000	0.00000000000000	0.00000000000000	0.00000000000000	0.00000000000000	0.00000000000000	0.00000000000000	0.00000000000000	20.99563100000000	0.00000000000000	0.00000000000000	0.00000000000000	0.00000000000000	
1.67166700000000	41.23713200000000	754.23567800000001	51.10158600000000	0.26904500000000	0.00000000000000	0.06257600000000	0.00000000000000	0.00000000000000	0.00000000000000	0.00000000000000	0.00000000000000	0.00000000000000	0.00000000000000	20.88822800000000	0.00000000000000	0.00000000000000	0.00000000000000	0.00000000000000	
1.67333500000000	40.53969600000000	751.87467100000003	50.92643900000000	0.26816000000000	0.00000000000000	0.06252100000000	0.00000000000000	0.00000000000000	0.00000000000000	0.00000000000000	0.00000000000000	0.00000000000000	0.00000000000000	20.77830800000000	0.00000000000000	0.00000000000000	0.00000000000000	0.00000000000000	
1.67500000000000	39.85130600000000	749.52281600000003	50.74561800000000	0.26726300000000	0.00000000000000	0.06246600000000	0.00000000000000	0.00000000000000	0.00000000000000	0.00000000000000	0.00000000000000	0.00000000000000	0.00000000000000	20.66589000000000	0.00000000000000	0.00000000000000	0.00000000000000	0.00000000000000	
